<svg width="116" height="113" viewBox="0 0 116 113" fill="none" xmlns="http://www.w3.org/2000/svg">
<path fill-rule="evenodd" clip-rule="evenodd" d="M16.4578 79.8977C16.5522 79.9102 16.6372 79.9612 16.6925 80.0387L18.3408 82.3475L21.1531 82.7189C21.3413 82.7438 21.4736 82.9164 21.4488 83.1045C21.4363 83.1989 21.3852 83.2838 21.3078 83.3391L18.999 84.9874L18.6275 87.7998C18.6027 87.9879 18.4301 88.1203 18.242 88.0954C18.1476 88.083 18.0626 88.0319 18.0073 87.9544L16.359 85.6457L13.5467 85.2742C13.3585 85.2494 13.2262 85.0767 13.251 84.8886C13.2635 84.7943 13.3146 84.7093 13.392 84.654L15.7008 83.0057L16.0723 80.1933C16.0971 80.0052 16.2697 79.8729 16.4578 79.8977ZM109.796 17.444C109.96 17.5406 110.076 17.701 110.118 17.8868L110.996 21.8414C111.037 22.0272 111.154 22.1876 111.318 22.2843L114.808 24.3417C115.134 24.5345 115.243 24.9557 115.05 25.2826C114.954 25.4466 114.793 25.5631 114.608 25.6044L110.653 26.4828C110.467 26.5241 110.307 26.6406 110.21 26.8046L108.153 30.2941C107.96 30.621 107.539 30.7298 107.212 30.537C107.048 30.4404 106.931 30.28 106.89 30.0942L106.012 26.1396C105.97 25.9538 105.854 25.7934 105.69 25.6967L102.2 23.6393C101.873 23.4465 101.765 23.0253 101.957 22.6984C102.054 22.5344 102.214 22.4179 102.4 22.3766L106.355 21.4982C106.541 21.4569 106.701 21.3404 106.798 21.1764L108.855 17.6869C109.048 17.36 109.469 17.2512 109.796 17.444Z" fill="#FBD64A"/>
<path fill-rule="evenodd" clip-rule="evenodd" d="M47.8952 17.0059C48.2054 17.0059 48.4611 17.2394 48.496 17.5402L48.5001 17.6107V21.6722C48.5001 21.9824 48.2666 22.2381 47.9658 22.273L47.8952 22.2771L39.5688 22.2767V26.7697L46.539 26.77C46.8253 26.77 47.0652 26.969 47.1279 27.2362L47.1398 27.3043L47.1439 27.3749V31.3037C47.1439 31.6139 46.9104 31.8696 46.6095 31.9045L46.539 31.9086L39.5688 31.9081V37.0973L47.9283 37.0978C48.2146 37.0978 48.4545 37.2967 48.5172 37.5639L48.5291 37.6321L48.5332 37.7026V41.7475C48.5332 42.0577 48.2997 42.3134 47.9988 42.3483L47.9283 42.3524H34.1015C33.7913 42.3524 33.5356 42.1189 33.5007 41.8181L33.4966 41.7475V17.6107C33.4966 17.3005 33.7301 17.0449 34.031 17.0099L34.1015 17.0059H47.8952ZM65.5434 49.693C64.0574 48.089 61.9026 47.2944 59.1208 47.2944C56.2794 47.2944 54.0238 48.2664 52.4046 50.2054C50.8044 52.1219 50.0147 54.8136 50.0147 58.2602V62.3217L50.017 62.6433C50.0631 65.9435 50.8255 68.5295 52.3239 70.3853C53.8946 72.3308 56.1563 73.3041 59.0546 73.3041C61.7959 73.3041 63.9567 72.5425 65.5014 71.0062C67.0421 69.4739 67.8672 67.2469 67.9947 64.3542C68.0098 64.01 67.7349 63.7227 67.3904 63.7227H62.5278L62.4593 63.7265C62.1665 63.7596 61.9356 64.002 61.9235 64.3031C61.862 65.8238 61.6128 66.8451 61.2232 67.3465C60.8715 67.7992 60.1647 68.0494 59.0546 68.0494C57.9538 68.0494 57.2376 67.7002 56.8201 67.0013C56.3563 66.2249 56.1035 64.6684 56.1035 62.3714V57.8126L56.109 57.5572C56.1588 55.7081 56.4246 54.3871 56.8791 53.6202C57.303 52.9048 58.0215 52.5491 59.1208 52.5491C60.2264 52.5491 60.9256 52.8061 61.273 53.2744C61.6605 53.7967 61.8986 54.8642 61.9397 56.4524C61.9482 56.7802 62.2164 57.0416 62.5444 57.0416H67.4235L67.4925 57.0377C67.8093 57.0018 68.0491 56.7217 68.0269 56.3956C67.8307 53.5154 67.0084 51.2743 65.5434 49.693ZM75.981 48.1598C75.9461 47.859 75.6904 47.6255 75.3802 47.6255H70.5177L70.4472 47.6295C70.1463 47.6645 69.9128 47.9201 69.9128 48.2303V72.3792L69.9169 72.4497C69.9518 72.7505 70.2075 72.984 70.5177 72.984H75.3802L75.4508 72.98L75.5189 72.9681C75.7861 72.9054 75.9851 72.6655 75.9851 72.3792L75.9847 63.4211H81.953L81.9534 72.3792L81.9575 72.4497C81.9924 72.7505 82.2481 72.984 82.5583 72.984L82.746 72.984C83.5307 70.3074 84.4796 67.9611 85.5977 65.9444C86.337 64.6108 87.1395 63.511 88.0091 62.6669L88.0091 48.2303L88.0051 48.1598C87.9701 47.859 87.7144 47.6255 87.4042 47.6255H82.5583L82.4877 47.6295L82.4196 47.6414C82.1523 47.7041 81.9534 47.944 81.9534 48.2303L81.953 58.1545H75.9847L75.9851 48.2303L75.981 48.1598ZM30.5195 47.6255C30.8297 47.6255 31.0854 47.859 31.1203 48.1598L31.1244 48.2303V52.2918C31.1244 52.602 30.8909 52.8577 30.5901 52.8926L30.5195 52.8967L25.17 52.8963L25.1703 72.3671C25.1703 72.6535 24.9713 72.8934 24.7041 72.956L24.6359 72.968L24.5654 72.972H19.6863C19.3761 72.972 19.1205 72.7385 19.0855 72.4377L19.0814 72.3671L19.0813 52.8963L13.8314 52.8967C13.5451 52.8967 13.3052 52.6977 13.2425 52.4305L13.2306 52.3624L13.2266 52.2918V48.2303C13.2266 47.9201 13.4601 47.6645 13.7609 47.6295L13.8314 47.6255H30.5195ZM48.496 48.1598C48.4611 47.859 48.2054 47.6255 47.8952 47.6255H34.1015L34.031 47.6295C33.7301 47.6645 33.4966 47.9201 33.4966 48.2303V72.3671L33.5007 72.4377C33.5356 72.7385 33.7913 72.972 34.1015 72.972H47.9283L47.9988 72.968C48.2997 72.933 48.5332 72.6773 48.5332 72.3671V68.3222L48.5291 68.2517L48.5172 68.1835C48.4545 67.9163 48.2146 67.7174 47.9283 67.7174L39.5683 67.7169V62.5277L46.539 62.5282L46.6095 62.5241C46.9104 62.4892 47.1439 62.2335 47.1439 61.9233V57.9945L47.1398 57.9239L47.1279 57.8558C47.0652 57.5886 46.8253 57.3896 46.539 57.3896L39.5683 57.3893V52.8963L47.8952 52.8967L47.9658 52.8926C48.2666 52.8577 48.5001 52.602 48.5001 52.2918V48.2303L48.496 48.1598ZM31.1205 17.5402C31.0856 17.2394 30.8299 17.0059 30.5197 17.0059H17.1891L17.1186 17.0099C16.8177 17.0449 16.5842 17.3005 16.5842 17.6107V41.7475L16.5883 41.8181C16.6233 42.1189 16.8789 42.3524 17.1891 42.3524H22.0516L22.1222 42.3483L22.1903 42.3364C22.4576 42.2737 22.6565 42.0339 22.6565 41.7475L22.656 32.5051L29.6101 32.5054L29.6806 32.5013C29.9814 32.4664 30.2149 32.2107 30.2149 31.9005V27.8556L30.2109 27.7851L30.199 27.7169C30.1363 27.4497 29.8964 27.2507 29.6101 27.2507L22.656 27.2506V22.2767L30.5197 22.2771L30.5903 22.273C30.8911 22.2381 31.1246 21.9824 31.1246 21.6722V17.6107L31.1205 17.5402ZM57.8584 17.0059C58.103 17.0059 58.3208 17.1527 58.4149 17.3735L58.4393 17.4418L62.4053 31.0812L66.3575 17.4424C66.4188 17.2308 66.5885 17.0732 66.7956 17.0229L66.8659 17.0102L66.9385 17.0059H73.2895C73.5997 17.0059 73.8554 17.2394 73.8903 17.5402L73.8944 17.6107V41.7475C73.8944 42.0577 73.6609 42.3134 73.3601 42.3483L73.2895 42.3524H68.4105C68.1003 42.3524 67.8446 42.1189 67.8097 41.8181L67.8056 41.7475L67.8062 35.1892L68.0283 30.1812L64.625 41.916C64.5637 42.1275 64.394 42.2851 64.1869 42.3354L64.1166 42.3481L64.0441 42.3524H60.7363C60.4916 42.3524 60.2736 42.2054 60.1797 41.9845L60.1553 41.916L56.7516 30.18L56.9748 35.216V41.7475C56.9748 42.0577 56.7413 42.3134 56.4405 42.3483L56.3699 42.3524H51.5074C51.1972 42.3524 50.9415 42.1189 50.9066 41.8181L50.9025 41.7475V17.6107C50.9025 17.3005 51.136 17.0449 51.4368 17.0099L51.5074 17.0059H57.8584Z" fill="#1F2024"/>
<path fill-rule="evenodd" clip-rule="evenodd" d="M86.06 14.3608C88.4507 14.3454 90.4058 15.0166 91.8976 16.3804C92.1188 16.5827 92.1357 16.9218 91.9447 17.1446L91.9088 17.1827L88.9593 20.0337C89.2068 21.0056 89.3318 21.9847 89.3336 22.9704C90.7806 23.9992 91.589 26.0294 92.2093 29.5354C103.167 40.2094 109.568 50.407 111.818 60.3889C114.48 72.1918 109.841 86.8776 93.1628 88.0897C92.8153 88.1304 92.436 88.1508 92.0251 88.1508H92.0243C92.0137 88.1524 92.0044 88.1523 91.9965 88.1507C91.4821 88.1472 90.7503 88.0496 89.801 87.8579C90.0804 89.2033 90.3114 90.6951 90.494 92.3335C90.6767 93.9718 90.768 95.3226 90.768 96.3859C90.768 98.7295 90.392 100.52 89.6399 101.757C88.8878 102.993 87.8993 103.612 86.6745 103.612C85.1273 103.612 84.0261 102.505 83.3707 100.292C82.7912 98.335 82.4679 95.4961 82.4008 91.7752C82.1379 91.9911 81.8702 92.1934 81.5979 92.3823C80.5342 93.1201 79.3255 93.489 77.9718 93.489C76.8759 93.489 76.0486 93.1689 75.4899 92.5288C74.9312 91.8886 74.6518 90.961 74.6518 89.7458L74.6543 89.6029C74.6749 88.9748 74.8245 87.9374 75.1031 86.4908L75.1976 86.0169C75.4139 84.9033 75.5221 84.1173 75.5221 83.659C75.5221 83.3118 75.4039 83.1382 75.1675 83.1382C74.8882 83.1382 74.496 83.5016 73.9911 84.2286C73.4861 84.9555 72.9704 85.9157 72.4439 87.1092C71.9174 88.3027 71.493 89.5613 71.1707 90.885C70.9344 91.9049 70.6604 92.5939 70.3488 92.9519C70.0372 93.31 69.5484 93.489 68.8822 93.489C68.0657 93.489 67.4909 93.055 67.1578 92.187C66.8247 91.319 66.6582 89.9302 66.6582 88.0206C66.6582 87.7359 66.6622 87.4527 66.6703 87.1708C65.8801 87.3318 65.0487 87.4306 64.1763 87.4673C63.768 89.2901 62.9622 90.7494 61.7589 91.8452C60.5555 92.9411 59.191 93.489 57.6654 93.489C56.3761 93.489 55.2748 93.1743 54.3615 92.545C53.719 92.1023 53.1856 91.5576 52.7611 90.9108C52.0566 91.5333 51.2791 92.0509 50.4292 92.4637C49.0217 93.1472 47.6626 93.489 46.3518 93.489C44.2459 93.489 42.6075 92.8868 41.4364 91.6825C40.2652 90.4781 39.6797 88.8886 39.6797 86.9139C39.6797 85.1563 40.0235 83.6156 40.7111 82.2919C41.3987 80.9682 42.2905 79.9483 43.3864 79.2322C44.4823 78.5161 45.6319 78.1581 46.8353 78.1581C48.0171 78.1581 48.9358 78.5107 49.5911 79.2159C50.2465 79.9212 50.5742 80.8271 50.5742 81.9338C50.5742 82.8452 50.3755 83.6156 49.9779 84.2449C49.5804 84.8742 49.0593 85.1888 48.4147 85.1888C48.0064 85.1888 47.6787 85.0912 47.4316 84.8959C47.1845 84.7006 47.0609 84.4293 47.0609 84.0821C47.0609 83.9302 47.0824 83.7566 47.1254 83.5613L47.2221 83.1382C47.3295 82.8127 47.3832 82.5089 47.3832 82.2268C47.3832 81.9447 47.3134 81.7277 47.1737 81.5758C47.034 81.4239 46.8353 81.3479 46.5774 81.3479C46.0832 81.3479 45.6212 81.5704 45.1914 82.0152C44.7617 82.4601 44.4178 83.0622 44.16 83.8217C43.9021 84.5812 43.7732 85.4166 43.7732 86.328C43.7732 88.8452 44.8584 90.1038 47.0287 90.1038C47.9097 90.1038 48.8605 89.8054 49.8812 89.2087C50.478 88.8598 51.0693 88.4089 51.6551 87.8559C51.6004 87.4649 51.5734 87.0642 51.5734 86.6535C51.5734 85.0044 51.885 83.5342 52.5082 82.2431C53.1313 80.9519 53.9909 79.9429 55.0868 79.2159C56.1827 78.489 57.3968 78.1255 58.729 78.1255C60.3621 78.1255 61.6783 78.6951 62.6775 79.8344C63.6767 80.9736 64.2622 82.3787 64.4342 84.0496C65.1812 84.0014 66.0341 83.8701 66.9928 83.6558C67.1911 82.3992 67.477 81.1744 67.8508 79.9809C68.0442 79.3516 68.3611 78.8904 68.8016 78.5975C69.2422 78.3045 69.8599 78.1581 70.655 78.1581C71.0848 78.1581 71.3856 78.2123 71.5575 78.3208C71.7294 78.4293 71.8154 78.6355 71.8154 78.9393C71.8154 79.2865 71.6542 80.0676 71.3319 81.2828L71.2189 81.7455C71.0559 82.4234 70.9217 83.0287 70.8162 83.5613C70.6872 84.2123 70.5798 85.0152 70.4938 85.97C71.203 84.1038 71.998 82.5848 72.879 81.413C73.7601 80.2412 74.625 79.4058 75.4737 78.9067C76.3225 78.4076 77.1015 78.1581 77.8106 78.1581C79.2073 78.1581 79.9057 78.8633 79.9057 80.2738C79.9057 81.0688 79.6971 82.467 79.2799 84.4684L79.0487 85.5621C78.739 87.0625 78.5842 88.0773 78.5842 88.6065C78.5842 89.4745 78.8957 89.9085 79.5189 89.9085C79.9487 89.9085 80.459 89.6427 81.0499 89.111C81.432 88.7673 81.897 88.2854 82.4452 87.6651C82.5919 84.3434 83.0186 80.9847 83.7252 77.5884C84.617 73.3027 85.8418 69.7548 87.3997 66.9447C88.9576 64.1346 90.6713 62.7295 92.5408 62.7295C93.5507 62.7295 94.3404 63.1852 94.9099 64.0966C95.4793 65.008 95.764 66.234 95.764 67.7747C95.764 72.8742 92.7449 78.4293 86.7067 84.4402L86.6391 85.1394C86.4693 86.9782 86.3844 88.6113 86.3844 90.0387C86.3844 92.2738 86.4596 94.5685 86.61 96.923L86.6407 97.3686C86.7931 99.4259 87.03 100.455 87.3514 100.455C87.996 100.455 88.3183 99.3262 88.3183 97.0695C88.3183 95.3769 88.2055 93.7385 87.9799 92.1544C87.7543 90.5704 87.4481 88.8995 87.0613 87.1418C87.0398 86.8597 87.1311 86.5016 87.3353 86.0676C87.5394 85.6337 87.7919 85.2539 88.0927 84.9284C88.3936 84.6029 88.6622 84.4402 88.8985 84.4402L89.1978 84.4434C89.5617 84.4509 89.9777 84.4715 90.4457 84.5053C90.6391 84.527 90.8647 84.5378 91.1226 84.5378C91.9821 84.5378 92.9383 84.4619 93.9912 84.31L94.3494 84.2666L94.3501 84.2665L94.3503 84.2663C106.56 82.4889 111.231 70.6475 109.568 61.3054C107.822 51.5012 101.183 40.5236 90.8605 30.635C87.7449 29.9004 85.5445 28.9271 84.6238 27.5399C83.5996 27.5383 82.5922 27.4062 81.6023 27.1444L78.4623 30.1791C78.2273 30.4062 77.8474 30.3793 77.6466 30.1214C76.4045 28.5263 75.8501 26.5123 75.9747 24.1029C75.2051 23.4513 74.509 22.7194 73.8953 21.9276V17.6102L73.8912 17.5396C73.8563 17.2388 73.6006 17.0053 73.2904 17.0053H71.378C70.6653 14.5689 70.6075 11.9839 71.3544 9.59594C71.4111 9.41488 71.5569 9.27582 71.7403 9.22795C76.8358 7.89838 82.7069 10.0974 86.06 14.3608ZM58.7605 81.575H58.5993C57.7398 81.575 57.0253 81.9927 56.4559 82.8282C55.8864 83.6636 55.6017 84.8408 55.6017 86.3598C55.6017 87.5533 55.8327 88.4647 56.2947 89.094C56.7567 89.7233 57.2993 90.0379 57.9224 90.0379C58.6101 90.0379 59.2063 89.7558 59.7113 89.1916C60.2163 88.6274 60.5547 87.8137 60.7266 86.7504C60.0605 86.2947 59.5502 85.698 59.1956 84.9602C58.841 84.2224 58.6638 83.4412 58.6638 82.6166C58.6638 82.2694 58.696 81.9222 58.7605 81.575ZM90.429 67.9364C90.9985 66.6127 91.4766 65.9509 91.8634 65.9509C92.4006 65.9509 92.6692 66.6127 92.6692 67.9364C92.6477 69.8026 92.175 71.8044 91.251 73.9418C90.327 76.0793 89.0054 78.1353 87.2864 80.11C87.6947 77.6796 88.1781 75.374 88.7368 73.1932C89.2955 71.0124 89.8596 69.2601 90.429 67.9364Z" fill="#FBD64A"/>
</svg>
