<?xml version="1.0" encoding="UTF-8"?>
<svg version="1.1" viewBox="0 0 1200 1200" xmlns="http://www.w3.org/2000/svg">
 <path d="m1087.5 765.75v171.75c0 39.781-15.805 77.938-43.934 106.07s-66.285 43.934-106.07 43.934h-675c-39.781 0-77.938-15.805-106.07-43.934s-43.934-66.285-43.934-106.07v-675c0-39.781 15.805-77.938 43.934-106.07s66.285-43.934 106.07-43.934h172.12c13.398 0 25.777 7.1484 32.477 18.75 6.6992 11.602 6.6992 25.898 0 37.5-6.6992 11.602-19.078 18.75-32.477 18.75h-172.12c-19.891 0-38.969 7.9023-53.031 21.969-14.066 14.062-21.969 33.141-21.969 53.031v675c0 19.891 7.9023 38.969 21.969 53.031 14.062 14.066 33.141 21.969 53.031 21.969h675c19.891 0 38.969-7.9023 53.031-21.969 14.066-14.062 21.969-33.141 21.969-53.031v-171.75c0-13.398 7.1484-25.777 18.75-32.477 11.602-6.6992 25.898-6.6992 37.5 0 11.602 6.6992 18.75 19.078 18.75 32.477zm0-540.75v328.88c0 40.191-21.441 77.332-56.25 97.43-34.809 20.094-77.691 20.094-112.5 0-34.809-20.098-56.25-57.238-56.25-97.43v-56.852l-206.02 206.02v0.003906c-28.457 28.43-69.918 39.516-108.77 29.09-38.848-10.43-69.18-40.793-79.574-79.652-10.391-38.859 0.73438-80.309 29.191-108.74l206.25-206.25h-57.074c-40.191 0-77.332-21.441-97.43-56.25-20.094-34.809-20.094-77.691 0-112.5 20.098-34.809 57.238-56.25 97.43-56.25h328.5c29.836 0 58.453 11.852 79.551 32.949 21.098 21.098 32.949 49.715 32.949 79.551zm-75 0c0-9.9453-3.9492-19.484-10.984-26.516-7.0312-7.0352-16.57-10.984-26.516-10.984h-328.5c-13.398 0-25.777 7.1484-32.477 18.75-6.6992 11.602-6.6992 25.898 0 37.5 6.6992 11.602 19.078 18.75 32.477 18.75h147.75c9.9453 0.003906 19.48 3.9531 26.512 10.984 7.0312 7.0352 10.98 16.57 10.98 26.516 0 9.9414-3.9492 19.48-10.98 26.512l-270.41 270.41h0.003906c-9.4883 9.4844-13.191 23.309-9.7188 36.266 3.4727 12.957 13.594 23.078 26.551 26.551 12.957 3.4727 26.781-0.23047 36.266-9.7188l270-270c7.0273-7.043 16.566-11.008 26.516-11.016 9.9492-0.007812 19.496 3.9375 26.535 10.969 7.043 7.0312 10.996 16.574 11 26.523v147.38c0 13.398 7.1484 25.777 18.75 32.477 11.602 6.6992 25.898 6.6992 37.5 0 11.602-6.6992 18.75-19.078 18.75-32.477z" fill="#fff"/>
</svg>
